<svg width="384" height="194" viewBox="0 0 384 194" fill="none" xmlns="http://www.w3.org/2000/svg">
<path d="M367.326 11.6223V55.5842C367.325 55.5955 367.321 55.6062 367.314 55.6152C367.308 55.6243 367.298 55.6312 367.288 55.635C367.277 55.6388 367.266 55.6396 367.255 55.637C367.244 55.6344 367.234 55.6286 367.226 55.6204C361.064 47.7104 350.126 43.1152 336.926 43.1152C311.775 43.1152 297.226 60.4923 295.726 90.1553C295.726 90.1553 295.585 93.3363 295.582 93.7363C295.37 119.836 288.956 131.645 275.771 131.645C266.371 131.645 257.283 128.636 258.143 116.382C258.231 115.129 259.299 89.7553 255.563 72.3113C251.799 54.7393 237.708 42.8174 216.851 42.8174C195.861 42.8174 171.936 58.1233 174.731 100.904C174.741 104.304 175.944 111.613 170.861 121.112C167.303 127.762 160.261 132.177 144.419 131.645L108.303 132.075C84.348 132.075 77.913 111.5 77.538 102.384C77.5373 102.376 77.5385 102.368 77.5414 102.36C77.5444 102.353 77.549 102.346 77.555 102.34L78.035 101.86C78.0462 101.849 78.0612 101.843 78.077 101.842L140.463 101.847C143.019 101.847 145.918 101.492 147.863 99.8294C150.872 97.2494 150.793 94.6293 150.776 91.7463C150.776 66.5623 137.537 48.2923 116.224 44.0803C113.329 43.5075 110.386 43.2175 107.435 43.2144V43.2144C95.259 43.2144 83.776 46.4364 74.988 55.3284C66.143 64.2774 61.211 77.7972 61.211 90.3572V95.6113C61.211 109.303 65.311 122.186 72.193 131.86C72.223 131.902 48.724 132.018 48.724 132.018C30.879 132.018 16.355 119.218 16.347 101.376L16.314 11.4163C16.314 9.26802 15.4606 7.20778 13.9416 5.68873C12.4225 4.16969 10.3623 3.31642 8.214 3.31642V3.31642C6.03551 3.31695 3.9464 4.18263 2.40607 5.72315C0.865729 7.26368 0.000265089 9.35276 0 11.5313V103.817C0 109.635 1.14586 115.396 3.37215 120.77C5.59843 126.145 8.86154 131.028 12.9752 135.142C17.0888 139.256 21.9724 142.519 27.3471 144.745C32.7218 146.971 38.4824 148.117 44.3 148.117H148.761C168.587 148.117 178.561 140.174 183.589 131.924C183.594 131.916 183.601 131.91 183.609 131.906C183.617 131.901 183.627 131.899 183.636 131.899C183.645 131.899 183.655 131.901 183.663 131.906C183.671 131.91 183.678 131.916 183.683 131.924C192.167 143.258 204.732 147.899 216.845 147.899C233.64 147.899 241.169 140.475 245.779 133.762C245.784 133.753 245.792 133.746 245.801 133.741C245.81 133.736 245.82 133.734 245.831 133.734C245.841 133.735 245.851 133.739 245.86 133.745C245.868 133.751 245.875 133.759 245.879 133.768C251.379 144.013 261.997 148.068 274.16 148.068C288.393 148.068 298.066 144.141 303.971 131.949C303.976 131.94 303.982 131.933 303.991 131.928C303.999 131.922 304.009 131.919 304.019 131.918C304.028 131.917 304.038 131.918 304.048 131.922C304.057 131.926 304.065 131.932 304.071 131.94C311.499 142.292 322.753 148.117 336.921 148.117H338.811C350.698 148.081 362.088 143.34 370.489 134.929C378.89 126.519 383.618 115.125 383.641 103.237V11.2693C383.641 9.1553 382.802 7.1277 381.308 5.63185C379.814 4.136 377.788 3.29418 375.674 3.29127V3.29127C374.579 3.28956 373.494 3.50378 372.481 3.92164C371.469 4.3395 370.549 4.95285 369.773 5.72657C368.998 6.5003 368.383 7.41928 367.963 8.43092C367.543 9.44255 367.327 10.527 367.326 11.6223V11.6223ZM311.908 93.4443C312.32 77.4613 317.518 59.4934 338.854 59.4934C361.159 59.4934 365.841 79.1343 365.841 95.6113C365.841 112.088 361.159 131.737 338.854 131.737C317.087 131.737 312.117 113.037 311.89 96.8142C311.89 96.4342 311.915 96.0822 311.916 95.6982V93.4443H311.908ZM241.798 95.3503C241.798 119.113 232.998 131.674 216.339 131.674C200.639 131.674 190.884 117.755 190.884 95.3503C190.884 72.9453 200.637 59.0364 216.339 59.0364C232.994 59.0364 241.798 71.5933 241.798 95.3503V95.3503ZM78.539 84.9434C78.5336 84.9387 78.5292 84.9328 78.5263 84.9263C78.5233 84.9197 78.5219 84.9125 78.522 84.9053C78.847 75.3503 84.969 59.6284 106.048 59.6284C114.548 59.6284 121.217 61.7283 125.864 65.8643C132.899 72.1283 133.664 81.5573 133.664 85.3753C133.664 85.3824 133.662 85.3894 133.658 85.3958C133.655 85.4021 133.651 85.4077 133.645 85.4124C133.64 85.417 133.634 85.4206 133.627 85.4229C133.62 85.4251 133.613 85.4258 133.606 85.4253L79.053 85.3804C79.0377 85.3803 79.0229 85.3749 79.011 85.3652L78.539 84.9434Z" fill="white"/>
<path d="M272.823 158.72C271.855 157.893 270.704 157.307 269.466 157.012C268.227 156.716 266.936 156.719 265.699 157.02C264.247 157.397 262.92 158.151 261.854 159.206C251.71 168.921 238.714 175.121 224.78 176.89C222.867 177.136 220.924 177.301 219.005 177.381C218.082 177.419 217.164 177.438 216.245 177.438C199.922 177.44 184.18 171.379 172.073 160.43C170.699 159.137 168.933 158.339 167.055 158.16C165.659 158.045 164.257 158.297 162.988 158.893C161.72 159.488 160.631 160.406 159.828 161.554C158.674 163.184 158.154 165.178 158.364 167.164C158.574 169.149 159.501 170.99 160.97 172.342C176.083 186.117 195.795 193.751 216.244 193.751C217.388 193.751 218.534 193.727 219.683 193.679C222.07 193.579 224.483 193.379 226.864 193.069C244.348 190.851 260.646 183.038 273.325 170.797C274.14 170.013 274.78 169.064 275.203 168.015C275.627 166.966 275.824 165.839 275.782 164.708C275.738 163.558 275.452 162.43 274.942 161.398C274.432 160.366 273.71 159.454 272.823 158.72V158.72Z" fill="white"/>
<path d="M289.253 42.0064C281.812 28.7471 270.842 17.8093 257.561 10.4073C244.28 3.00524 229.207 -0.571552 214.016 0.0742566C212.764 0.125257 211.494 0.206247 210.241 0.314247C197.07 1.47903 184.369 5.78395 173.204 12.868C162.039 19.952 152.735 29.6088 146.07 41.0293C145.14 42.5949 144.772 44.4308 145.026 46.2339C145.281 48.0371 146.143 49.6995 147.47 50.9463L147.656 51.1224C148.426 51.8639 149.338 52.4412 150.337 52.8194C151.337 53.1976 152.403 53.3687 153.47 53.3223C154.831 53.2663 156.155 52.8669 157.32 52.1614C158.485 51.4559 159.453 50.4673 160.133 49.2874C165.478 40.1116 172.945 32.3516 181.909 26.659C190.873 20.9663 201.072 17.507 211.649 16.5713C212.659 16.4833 213.679 16.4182 214.68 16.3772C226.909 15.8555 239.042 18.7459 249.722 24.7251C260.402 30.7043 269.208 39.5367 275.156 50.2344C275.851 51.4775 276.866 52.5119 278.095 53.2305C279.325 53.9492 280.724 54.3259 282.148 54.3213C282.26 54.3213 282.374 54.3212 282.487 54.3142C284.09 54.261 285.638 53.72 286.924 52.7632C288.211 51.8065 289.175 50.4796 289.687 48.9602L289.8 48.6314C290.185 47.5516 290.335 46.4021 290.241 45.2598C290.146 44.1175 289.81 43.0085 289.253 42.0064V42.0064Z" fill="white"/>
</svg>
